<?xml version="1.0" standalone="no"?>
<svg viewBox="0 0 200 200" xmlns="http://www.w3.org/2000/svg">
  <path fill="#262951" d="M15,-26C20.9,-22.5,28.2,-21.5,31.9,-17.6C35.5,-13.7,35.5,-6.8,42.7,4.1C49.9,15.1,64.3,30.3,61.6,35.8C58.9,41.4,39,37.3,25.9,34.7C12.8,32.1,6.4,30.9,-3.6,37.2C-13.6,43.4,-27.2,57,-34.8,56.5C-42.5,55.9,-44.2,41.2,-44.8,29.5C-45.3,17.7,-44.7,8.8,-47.2,-1.4C-49.7,-11.7,-55.3,-23.4,-50.6,-28C-45.9,-32.6,-30.9,-30.1,-20.7,-31.2C-10.6,-32.2,-5.3,-37,-0.4,-36.3C4.5,-35.6,9,-29.6,15,-26Z" transform="translate(100 100)" />
</svg>
